PathFileType	4	(X/Y/Z)	Patient4_TMGait_0pt7_02_left_51.trc.trc
DataRate	CameraRate	NumFrames	NumMarkers	Units	OrigDataRate	OrigDataStartFrame	OrigNumFrames
89.743589743590	89.743589743590	5	33	mm	89.743589743590	53	       141
Frame#	Time	Sacral			L.Shoulder			Chest			R.Shoulder			Neck			R.ASIS			L.ASIS			R.Thigh.Superior			R.Thigh.Lateral			R.Thigh.Inferior			R.Patella			L.Thigh.Superior			L.Thigh.Lateral			L.Thigh.Inferior			L.Patella			L.Shank.Superior			L.Shank.Lateral			L.Shank.Inferior			R.Shank.Superior			R.Shank.Lateral			R.Shank.Inferior			R.Heel			R.Midfoot.Superior			R.Midfoot.Lateral			R.Toe			L.Heel			L.Midfoot.Lateral			L.Midfoot.Superior			L.Toe			L.Elbow			L.Wrist			R.Elbow			R.Wrist			
		X1	Y1	Z1	X2	Y2	Z2	X3	Y3	Z3	X4	Y4	Z4	X5	Y5	Z5	X6	Y6	Z6	X7	Y7	Z7	X8	Y8	Z8	X9	Y9	Z9	X10	Y10	Z10	X11	Y11	Z11	X12	Y12	Z12	X13	Y13	Z13	X14	Y14	Z14	X15	Y15	Z15	X16	Y16	Z16	X17	Y17	Z17	X18	Y18	Z18	X19	Y19	Z19	X20	Y20	Z20	X21	Y21	Z21	X22	Y22	Z22	X23	Y23	Z23	X24	Y24	Z24	X25	Y25	Z25	X26	Y26	Z26	X27	Y27	Z27	X28	Y28	Z28	X29	Y29	Z29	X30	Y30	Z30	X31	Y31	Z31	X32	Y32	Z32	X33	Y33	Z33	

53	58.989428571429	767.380777399212	1007.842391741436	461.314059179795	940.647048831685	1432.037620339114	274.230892458528	1052.573537085302	1363.891250150821	431.162511159189	977.429728059693	1439.613592833859	608.819652083085	945.954567390511	1494.809643942498	430.082482479082	994.771985180182	940.185300908656	571.353133979469	979.051798451188	965.380739809075	298.857604972155	1081.370791507732	778.656802949177	545.745331810626	1047.766943240596	658.901186156340	625.641137289980	1139.695891536718	621.905231311755	546.270306424907	1162.421469306427	506.029722699014	572.277202177883	1028.970848278088	755.769662181041	324.109776240439	939.807747186459	640.918856706661	263.804989167616	1023.868324759210	562.319511397636	325.952298995231	1023.651527966748	493.781650850862	335.433812335306	1000.089270260933	421.672573659991	326.006392137450	913.986342322325	303.986269746034	276.468684872130	970.731869937449	195.598438765787	348.367053226044	1079.678188449275	434.268981785359	579.879545979332	952.370903993383	406.700005620649	635.021336743763	932.107001794256	297.744893948696	589.739316678057	732.695950838700	261.060154029324	552.602666240821	885.277872294199	173.847592667973	603.245240472579	775.346931559308	191.377009255491	628.213515995288	926.783134894124	51.006208259095	630.476156991635	848.519818064008	37.663119368082	394.470294312090	920.178303090986	34.802623565187	311.136666508115	1002.346428514571	97.611484787764	335.804159115316	1130.620198016608	50.007354164753	304.584335447935	926.461678636343	1077.229572798120	161.060259954214	1039.192372934941	840.941593450254	163.969484591589	966.040687114892	1092.810222188034	728.834112747959	1200.477089888198	1020.605531495496	664.641017749687	
54	59.000571428571	765.996505614839	1008.191251065397	459.955020921614	941.924323544287	1432.251555994929	273.934777353021	1052.131831566366	1364.070624040765	432.086028807371	975.151839834471	1439.968521146041	608.833176817142	945.700248787221	1495.058026750249	429.794386830561	993.019712070775	940.898195900608	571.756604963004	978.935828736795	965.684098606839	299.250507475921	1081.894131517087	782.685439866073	544.927992571954	1051.823712127334	662.603815241835	625.634606322066	1143.765874000705	627.179047666034	545.598234036540	1169.258311516978	511.812188372193	571.971638508250	1026.755803948402	754.862992253064	324.555828189541	936.515162082825	640.983853848655	263.643785258372	1019.258638358174	561.456241585614	326.136132614200	1018.125113621355	493.045868566281	335.778037340434	994.366330898083	421.191304758068	326.145699616125	907.835414855239	303.950624323146	276.321625330047	963.657356816821	195.301594088549	348.473460396687	1088.206379824603	438.224269619963	580.016190652972	961.877534118659	407.607020740158	635.816027851375	943.893390294294	298.183281968010	590.433108868276	744.810462864172	256.056749761611	554.698869134251	900.636558457256	173.822964076876	604.242233217807	790.250690347715	187.684284667122	629.867860439564	946.113232302206	52.321570875558	630.634874512625	840.615192609072	37.643374417884	394.450047361634	912.321477808183	34.786929790475	311.134011438926	994.537780753925	97.493799235455	335.921311778218	1122.795023472655	49.873910720858	304.644204335632	937.782244232355	1078.625367550329	156.914020018163	1061.983327933203	848.054949255703	161.053210834131	955.971476100578	1093.521605970813	729.171543483103	1185.242536644173	997.998590154741	671.642755951030	
55	59.011714285714	764.678862377675	1008.491037249338	458.687886066732	943.309863688875	1432.405893606484	273.752450870750	1051.758592733540	1364.194332504769	433.112377670927	972.954871043752	1440.271179348454	608.923646421389	945.499681907836	1495.250166902107	429.601367332991	991.317634143229	941.512315042759	572.322593840830	978.886155894232	965.930961196047	299.770007738917	1082.232122197048	786.459521737654	544.362139534373	1055.368097338994	666.066133050298	625.734016229527	1147.405574576293	632.152260007353	545.217414123467	1175.504007077834	517.463266597851	571.854250396827	1024.506897154352	753.908211285935	325.123048493507	933.208685366770	641.025170733534	263.540632169952	1014.576193921565	560.572374503519	326.382964373995	1012.512664349835	492.296335122819	336.156904566112	988.579616826978	420.709360134761	326.308309917959	901.638715370111	303.907540096369	276.193956569416	956.545991469154	195.005551857194	348.586878744741	1096.434793057961	441.952012321919	580.321953926906	971.309051438321	407.906918779773	636.861080366269	955.964024854970	297.981658811328	591.411218273989	757.466804725710	249.782589113937	557.178866178614	916.689955473131	173.107203386870	605.577593032319	805.920974661131	183.028038777670	631.943092832064	966.485871372315	53.162296323052	631.263727588720	832.706563181770	37.623050597139	394.435172386912	904.463242155446	34.767820522958	311.132226871088	986.724607132528	97.379879396605	336.036780966108	1114.969702842989	49.743915863083	304.700253815436	948.898512631690	1080.409540177106	152.854824872416	1084.330880271880	856.173905272385	158.591650986631	946.907226947434	1094.243347900679	729.566549035242	1168.519752912094	975.738345120250	679.129980967697	
56	59.022857142857	763.463307816858	1008.741832968799	457.528264375654	944.800555196827	1432.506716758346	273.694332631278	1051.470889574765	1364.259725321903	434.235758632570	970.876640116329	1440.503465017929	609.106464929894	945.364938634365	1495.385946268598	429.517626319791	989.687011462024	942.022239604333	573.041959686944	978.915833151391	966.124458793607	300.390311326716	1082.407215833591	789.925312832488	544.071978514549	1058.355940935372	669.218432498368	625.952922301829	1150.589676618837	636.748693372399	545.164678979883	1181.107142023943	522.898276031373	571.959183205338	1022.238636672382	752.914329389913	325.797929727704	929.881968268724	641.044721820874	263.494043315496	1009.812937871057	559.667966659517	326.689794405889	1006.813468781685	491.537896308097	336.566540839972	982.726587390010	420.229751165184	326.494120099974	895.390057505333	303.861813823291	276.086364266454	949.395660643065	194.713202907428	348.706887282346	1104.294981053515	445.408789618368	580.822383957875	980.627238521738	407.584327349311	638.163448074809	968.279531324841	297.159399413420	592.683846344624	770.705267910157	242.294682849279	560.026988818625	933.366088081821	171.737323322954	607.237713819785	822.339918452672	177.483051423699	634.422304791707	987.774275462958	53.612505209404	632.370672380914	824.796943149078	37.602257614837	394.424923030838	896.603704509277	34.745669256366	311.130003734150	978.908427082087	97.271922118053	336.148203260672	1107.143991774884	49.619236359446	304.751453989740	959.726416323144	1082.551839002227	148.920032879100	1106.111612590509	865.269026415907	156.604849540106	938.831470086045	1094.875762701410	730.027040116351	1150.248759148250	954.169931605154	687.034514564791	
57	59.034000000000	762.384516445798	1008.946473872969	456.491233011229	946.387522943891	1432.562269832863	273.771712554581	1051.284673193601	1364.264344497385	435.448784668492	968.957699923242	1440.648039899908	609.397129717210	945.309210282968	1495.464912464025	429.558651285578	988.145359858444	942.423495068804	573.896177007281	979.039685708730	966.266216483146	301.087255362886	1082.437058261665	793.032872373305	544.070251566400	1060.750130561096	671.992648409331	626.297945145923	1153.289116440158	640.890485384628	545.459484145794	1186.018626993183	528.028931731903	572.305305163913	1019.969598643708	751.886729804825	326.567905808971	926.533269110959	641.044852993866	263.505109746414	1004.967646672955	558.742980507923	327.055774034775	1001.035515144343	490.776175175165	337.003803433345	976.809770149352	419.754982606640	326.705572193486	889.087626724528	303.819010369669	276.001047022395	942.208197662902	194.427284697868	348.833863561234	1111.718462009470	448.549429636357	581.530103711620	989.802164737119	406.621403150546	639.727801135490	980.805374151568	295.740722346224	594.250894159680	784.576734238475	233.647436528541	563.222973373991	950.608767403028	169.764285040237	609.206105418769	839.502744868797	171.120849165701	637.279691408918	1009.877688433045	53.788700853339	633.946587301939	816.889928548236	37.581792485247	394.418045688339	888.743191047416	34.721154311056	311.126611848777	971.091270370388	97.171447343277	336.254087785674	1099.317717367949	49.500570929010	304.797350318738	970.192727646659	1085.015456559066	145.144698458658	1127.212621482490	875.303004889591	155.106143053882	931.683063764222	1095.351124722691	730.557011427227	1130.425596874931	933.640401470873	695.273245081238	
